<?xml version="1.0" standalone="no"?><!DOCTYPE svg PUBLIC "-//W3C//DTD SVG 1.1//EN" "http://www.w3.org/Graphics/SVG/1.1/DTD/svg11.dtd"><svg t="1732697413850" class="icon" viewBox="0 0 1024 1024" version="1.1" xmlns="http://www.w3.org/2000/svg" p-id="15218" xmlns:xlink="http://www.w3.org/1999/xlink" width="200" height="200"><path d="M260.181333 1023.146667a103.168 103.168 0 0 1-63.374222-22.129778c-33.194667-25.088-49.550222-68.266667-41.898667-110.592l35.612445-212.878222a28.615111 28.615111 0 0 0-8.135111-27.648l-150.584889-152.035556C2.958222 468.195556-7.196444 423.68 5.632 383.402667c11.946667-40.817778 45.056-70.741333 85.105778-76.856889l209.493333-31.516445c9.216-1.336889 17.237333-7.338667 21.475556-16.042666l93.240889-196.551111c18.261333-38.200889 55.324444-62.293333 95.857777-62.293334 40.504889 0 77.568 24.092444 95.857778 62.293334l93.212445 196.551111c4.266667 8.704 12.259556 14.705778 21.475555 16.042666l209.493333 31.516445c40.675556 5.518222 74.524444 35.555556 86.698667 76.856889 12.828444 40.277333 2.645333 84.764444-26.168889 114.460444l-154.282666 152.035556a28.586667 28.586667 0 0 0-8.106667 25.457777l35.612444 215.608889c7.651556 42.353778-8.704 85.504-41.898666 110.620445a101.944889 101.944889 0 0 1-113.123556 9.102222l-186.481778-101.745778a26.965333 26.965333 0 0 0-26.168889 0l-186.993777 100.380445a103.992889 103.992889 0 0 1-49.777778 13.824z" fill="#000000" p-id="15219"></path></svg>