<?xml version="1.0" standalone="no"?><!DOCTYPE svg PUBLIC "-//W3C//DTD SVG 1.1//EN" "http://www.w3.org/Graphics/SVG/1.1/DTD/svg11.dtd"><svg t="1733119189599" class="icon" viewBox="0 0 1024 1024" version="1.1" xmlns="http://www.w3.org/2000/svg" p-id="12791" xmlns:xlink="http://www.w3.org/1999/xlink" width="200" height="200"><path d="M864 128a64 64 0 0 1 64 64v480a64 64 0 0 1-64 64h-252.224a6.944 6.944 0 0 0-5.824 3.168l-67.168 103.488a34.656 34.656 0 0 1-58.72-0.896l-62.048-102.4a6.944 6.944 0 0 0-5.92-3.36H160a64 64 0 0 1-64-64V192a64 64 0 0 1 64-64h704z m-5.344 69.344H165.344v469.312h246.72c24.64 0 47.616 11.872 61.888 31.68l3.36 5.088 33.408 55.136 37.056-57.12a76.256 76.256 0 0 1 58.048-34.56l5.952-0.224h246.88V197.344z" fill="#717378" p-id="12792"></path><path d="M647.424 474.656c3.52 0 6.4 2.88 6.4 6.4V537.6a6.4 6.4 0 0 1-6.4 6.4h-270.848a6.4 6.4 0 0 1-6.4-6.4v-56.544c0-3.52 2.88-6.4 6.4-6.4h270.848z m0-138.656c3.52 0 6.4 2.88 6.4 6.4v56.544a6.4 6.4 0 0 1-6.4 6.4h-270.848a6.4 6.4 0 0 1-6.4-6.4V342.4c0-3.52 2.88-6.4 6.4-6.4h270.848z" fill="#717378" p-id="12793"></path></svg>