<?xml version="1.0" standalone="no"?><!DOCTYPE svg PUBLIC "-//W3C//DTD SVG 1.1//EN" "http://www.w3.org/Graphics/SVG/1.1/DTD/svg11.dtd"><svg t="1733153084709" class="icon" viewBox="0 0 1024 1024" version="1.1" xmlns="http://www.w3.org/2000/svg" p-id="7248" xmlns:xlink="http://www.w3.org/1999/xlink" width="200" height="200"><path d="M891.968213 344.285911c1.535846 1.535846 3.020496 2.457353 3.327666 2.098989l47.611215-47.611215c0.358364-0.307169-0.563143-1.843015-2.047794-3.327665l-211.434751-211.434751c-1.535846-1.484651-2.969302-2.406158-3.327666-2.047794l-47.611215 47.611215c-0.358364 0.307169 0.614338 1.843015 2.098989 3.327665l211.383556 211.383556zM968.146157 258.43214a13.566637 13.566637 0 0 0 1.331067 1.177481c2.354963-1.740625 4.607537-3.68603 6.655331-5.785018l29.232262-29.181068c4.607537-4.658732 8.344761-9.880607 11.262868-15.460846 13.669026-26.621325 7.628033-62.201749-17.047887-86.877669L901.592846 24.318068c-24.67592-24.67592-60.256344-30.716913-86.877669-17.047887-5.631434 2.866912-10.853309 6.604136-15.460846 11.262868l-29.181067 29.181068a61.331436 61.331436 0 0 0-5.785019 6.655331 14.02739 14.02739 0 0 0 1.228677 1.433456l202.629235 202.629236zM247.834549 807.394569c6.040993 0 11.774817-1.68943 16.587133-4.607537 0.563143 0.10239 1.68943 0 2.918106-0.358364 0 0 232.168667-68.037962 235.905892-71.058459l12.747519-6.911305c-1.331066 4.761122 342.647164-339.831447 342.647164-339.831447 2.406158-2.406158 4.095588-4.607537 3.839614-4.965901l-44.744303-44.744303c-0.307169-0.307169-2.559743 1.433456-4.965901 3.839614l-337.322899 337.783653-7.781618 4.607537s-129.830152 37.730608-133.106623 37.935387c-2.713327 0.204779-16.484743-15.460846-16.484743-15.460846s-12.952298-11.467648-12.952299-14.23217c0-2.815717 41.263053-141.758553 41.263053-141.758553l335.633469-337.732458c2.457353-2.457353 4.197978-4.607537 3.890809-4.965901l-41.826196-41.826196c-0.307169-0.307169-2.559743 1.433456-4.965901 3.890809L297.493558 508.67259a31.331251 31.331251 0 0 0-5.27307 6.552942l-71.826382 242.305248a32.252759 32.252759 0 0 0-4.914706 14.539339v5.733824c1.484651 16.587133 15.358456 29.590626 32.355149 29.590626" fill="#6D7991" p-id="7249"></path><path d="M722.820413 240.155576c-0.409559-0.409559-2.662132 1.228677-5.119486 3.58364l-337.374094 337.374094a17.047887 17.047887 0 0 0-3.58364 4.658732l45.665811 10.238971a7.576839 7.576839 0 0 1 4.761121 6.348162l6.040993 39.368843a20.989891 20.989891 0 0 0 4.249173-3.48125l337.374094-337.374094c2.406158-2.406158 4.044394-4.658732 3.634835-5.06829L722.820413 240.206771z" fill="#6D7991" p-id="7250"></path><path d="M908.248177 514.508804v409.814813c0 22.628126-18.430148 40.955884-40.955884 40.955884H99.574249c-22.628126 0-41.007079-18.327758-41.007079-40.955884V173.75585c0-22.628126 18.378953-41.007079 40.955884-41.007079H493.569852l59.386032-58.566914H99.676638A99.676383 99.676383 0 0 0 0.051451 173.75585v750.567767c0 54.880884 44.641913 99.573993 99.573993 99.573993h767.615654a99.676383 99.676383 0 0 0 99.573993-99.573993V456.761008l-58.566914 57.747796z" fill="#6D7991" p-id="7251"></path></svg>