<?xml version="1.0" standalone="no"?><!DOCTYPE svg PUBLIC "-//W3C//DTD SVG 1.1//EN" "http://www.w3.org/Graphics/SVG/1.1/DTD/svg11.dtd"><svg t="1733331287149" class="icon" viewBox="0 0 1024 1024" version="1.1" xmlns="http://www.w3.org/2000/svg" p-id="6888" xmlns:xlink="http://www.w3.org/1999/xlink" width="200" height="200"><path d="M512 64C264.576 64 64 264.576 64 512s200.576 448 448 448 448-200.576 448-448S759.424 64 512 64z m226.274 583.765c24.89 24.89 24.89 65.619 0 90.51-24.89 24.89-65.619 24.89-90.51 0L512 602.51 376.235 738.274c-24.89 24.89-65.619 24.89-90.51 0-24.89-24.89-24.89-65.619 0-90.51L421.49 512 285.726 376.235c-24.89-24.89-24.89-65.619 0-90.51 24.89-24.89 65.619-24.89 90.51 0L512 421.49l135.765-135.765c24.89-24.89 65.619-24.89 90.51 0 24.89 24.89 24.89 65.62 0 90.51L602.51 512l135.764 135.765z" p-id="6889"></path></svg>