<?xml version="1.0" standalone="no"?><!DOCTYPE svg PUBLIC "-//W3C//DTD SVG 1.1//EN" "http://www.w3.org/Graphics/SVG/1.1/DTD/svg11.dtd"><svg t="1733363903777" class="icon" viewBox="0 0 1024 1024" version="1.1" xmlns="http://www.w3.org/2000/svg" p-id="12617" xmlns:xlink="http://www.w3.org/1999/xlink" width="200" height="200"><path d="M448 832a31.902 31.902 0 0 1-22.628-9.373l-160-160a32 32 0 0 1 45.256-45.254L448 754.745l265.372-265.372a32 32 0 0 1 45.256 45.254l-288 288A31.902 31.902 0 0 1 448 832z" fill="" p-id="12618"></path><path d="M896 992H128a96.109 96.109 0 0 1-96-96V192a96.109 96.109 0 0 1 96-96h64.004a32 32 0 0 1 0 64H128a32.036 32.036 0 0 0-32 32v704a32.036 32.036 0 0 0 32 32h768a32.036 32.036 0 0 0 32-32V192a32.036 32.036 0 0 0-32-32h-63.998a32 32 0 0 1 0-64H896a96.109 96.109 0 0 1 96 96v704a96.109 96.109 0 0 1-96 96z" fill="" p-id="12619"></path><path d="M640 160H384a32 32 0 0 1 0-64h256a32 32 0 0 1 0 64z m96 64a32 32 0 0 1-32-32V64a32 32 0 0 1 64 0v128a32 32 0 0 1-32 32z m-448 0a32 32 0 0 1-32-32V64a32 32 0 0 1 64 0v128a32 32 0 0 1-32 32z m672 160H64a32 32 0 0 1 0-64h896a32 32 0 0 1 0 64z" fill="" p-id="12620"></path></svg>