<?xml version="1.0" standalone="no"?><!DOCTYPE svg PUBLIC "-//W3C//DTD SVG 1.1//EN" "http://www.w3.org/Graphics/SVG/1.1/DTD/svg11.dtd"><svg t="1731926540076" class="icon" viewBox="0 0 1024 1024" version="1.1" xmlns="http://www.w3.org/2000/svg" p-id="27457" xmlns:xlink="http://www.w3.org/1999/xlink" width="200" height="200"><path d="M424.7 652.7m-297.8 0a297.8 297.8 0 1 0 595.6 0 297.8 297.8 0 1 0-595.6 0Z" fill="#dbdbdb" opacity=".5" p-id="27458"></path><path d="M595.5 569.8c38.9 0 75.1-24.6 94.5-64.2 7.2-14.8 1.1-32.6-13.6-39.8-14.8-7.3-32.6-1.1-39.8 13.6-9.5 19.3-24.8 30.8-41 30.8-14.9 0-30.3-12-40.3-31.4-7.6-14.6-25.5-20.3-40.1-12.8-14.6 7.5-20.3 25.5-12.8 40.1 20.1 39.3 55.8 63.7 93.1 63.7z" fill="#dbdbdb" p-id="27459"></path><path d="M898.4 761.1c-13.6-87.1-39.9-148.3-81.5-189.9C864.7 514 890.8 438 882.2 356c-13.9-132.7-120.8-240.4-253.5-255.1C455.4 81.6 308.1 217.4 308.1 387c0 70.5 25.6 135.1 67.8 185.2-42.4 42-69 102.9-82.4 189-1.6 10.5-1.7 21.6 1.1 31.9 10 37.3 42.3 60.5 77.4 60.5h448c35.1 0 67.4-23.2 77.4-60.5 2.7-10.4 2.6-21.5 1-32zM595.9 161.4c125.9 0 228.3 102.4 228.3 228.3 0 66.5-28.7 126.2-74.2 168-3.9 3.6-7.8 7.1-11.9 10.4-1.8 1.4-3.7 2.7-5.5 4.1-3.9 3-7.9 5.9-12 8.6-2.3 1.5-4.7 2.8-7 4.3-3.8 2.3-7.6 4.6-11.6 6.7-2.8 1.5-5.7 2.8-8.5 4.1-3.7 1.7-7.3 3.5-11.1 5.1-3.2 1.3-6.6 2.4-9.9 3.6-3.6 1.3-7.1 2.6-10.7 3.7-3.7 1.1-7.5 2-11.2 2.9-3.4 0.8-6.7 1.8-10.1 2.5-4.4 0.9-9 1.5-13.5 2.1-2.8 0.4-5.6 0.9-8.5 1.2-7.4 0.7-15 1.1-22.6 1.1h-0.2c-7.5 0-15-0.4-22.3-1.1-3.1-0.3-6.1-0.9-9.2-1.3-4.2-0.6-8.5-1.1-12.6-1.9-3.8-0.7-7.4-1.8-11.1-2.7-3.4-0.8-6.7-1.6-10-2.6-4-1.2-8-2.7-12-4.1-2.8-1-5.7-2-8.4-3.1-4.2-1.7-8.4-3.7-12.5-5.7-2.3-1.1-4.7-2.2-7-3.4-4.4-2.3-8.7-4.9-13-7.5-1.8-1.1-3.7-2.2-5.4-3.3-4.6-3-9-6.2-13.4-9.5-1.3-1-2.7-1.9-3.9-3-4.6-3.6-9.1-7.5-13.4-11.5-45.2-41.7-73.8-101.3-73.8-167.6-0.1-126 102.4-228.4 228.2-228.4zM835 787c-2.2 2.6-7.1 6.9-15 6.9H372c-7.9 0-12.8-4.3-15-6.9-2.3-2.6-5.9-8.3-4.6-16.3 11.4-73.6 32.7-124.3 66.2-157.3 2.2 1.8 4.6 3.3 6.9 5 3.9 2.9 7.8 5.9 11.9 8.6 4 2.7 8.2 5.1 12.4 7.6 5.5 3 11 6 16.4 9.1 5.1 2.6 10.2 5.2 15.4 7.4 3.3 1.4 6.6 2.6 9.9 3.9 4.9 1.9 9.8 3.8 14.7 5.4 3.5 1.1 7 2.1 10.5 3.2 5.1 1.5 10.2 2.8 15.4 4 3.5 0.8 6.9 1.5 10.4 2.2 5.7 1.1 11.5 1.9 17.3 2.7 3 0.4 6 0.9 9.1 1.1 8.9 0.8 17.9 1.4 27 1.4 9.1 0 18.1-0.5 27.1-1.4 3-0.3 5.9-0.8 8.8-1.1 6-0.7 11.9-1.6 17.8-2.7 3.4-0.6 6.7-1.4 10-2.1 5.4-1.2 10.7-2.6 16-4.1 3.3-1 6.6-1.9 9.9-3 5.3-1.7 10.6-3.7 15.8-5.8 3-1.2 6-2.3 8.9-3.6 5.8-2.5 11.5-5.3 17.1-8.2 2.2-1.1 4.4-2.1 6.5-3.2 7.4-4.1 14.6-8.4 21.6-13.2 3.1-2.1 6-4.4 9-6.6 3.3-2.4 6.7-4.7 9.9-7.2 32.9 32.5 53.4 82.5 65.1 158.1 1.5 7.8-2.1 13.4-4.4 16.1z" fill="#dbdbdb" p-id="27460"></path></svg>