<?xml version="1.0" standalone="no"?><!DOCTYPE svg PUBLIC "-//W3C//DTD SVG 1.1//EN" "http://www.w3.org/Graphics/SVG/1.1/DTD/svg11.dtd"><svg t="1733363201871" class="icon" viewBox="0 0 1024 1024" version="1.1" xmlns="http://www.w3.org/2000/svg" p-id="9064" xmlns:xlink="http://www.w3.org/1999/xlink" width="200" height="200"><path d="M137.38496 874.68032a11.76576 11.76576 0 0 0 3.49696 8.43776 11.74528 11.74528 0 0 0 8.43264 3.49696h725.3504a11.7504 11.7504 0 0 0 8.43776-3.49696 11.80672 11.80672 0 0 0 3.49184-8.43776v-469.3504h30.72v30.72H106.66496v-30.72h30.72z m-61.44 0v-469.3504a30.3872 30.3872 0 0 1 0.9216-7.45984 30.1056 30.1056 0 0 1 2.02752-5.67296 30.82752 30.82752 0 0 1 8.28416-10.61376 30.55616 30.55616 0 0 1 10.5728-5.64736 30.6688 30.6688 0 0 1 8.91392-1.32096h810.6496a30.8736 30.8736 0 0 1 11.75552 2.33472 32.58368 32.58368 0 0 1 2.72896 1.29024 29.73696 29.73696 0 0 1 3.81952 2.41664 31.87712 31.87712 0 0 1 3.42016 2.95424 31.42144 31.42144 0 0 1 3.81952 4.6592 31.32928 31.32928 0 0 1 2.2272 3.92704 33.18784 33.18784 0 0 1 1.15712 2.78528 34.39616 34.39616 0 0 1 0.87552 2.88768 35.7888 35.7888 0 0 1 0.58368 2.95424 27.55584 27.55584 0 0 1 0.29696 3.00032c0.0256 0.50176 0.03584 1.00352 0.03584 1.5104v469.34528c0 9.93792-1.92512 19.46112-5.77536 28.5696a72.79616 72.79616 0 0 1-15.71328 23.31136 72.68864 72.68864 0 0 1-23.31136 15.71328 72.576 72.576 0 0 1-28.5696 5.78048H149.31456c-9.9328 0-19.456-1.92512-28.5696-5.78048a72.71936 72.71936 0 0 1-23.30624-15.71328 72.72448 72.72448 0 0 1-15.71328-23.31136 72.59136 72.59136 0 0 1-5.78048-28.5696z" fill="#8a8a8a" p-id="9065"></path><path d="M106.66496 374.59456h810.6496v30.72h-30.72v-192a11.79648 11.79648 0 0 0-3.49184-8.43264 11.776 11.776 0 0 0-8.43776-3.49696H149.31456a11.76576 11.76576 0 0 0-8.43264 3.49696 11.8784 11.8784 0 0 0-3.49696 8.43776v192h-30.72z m0 61.44a30.848 30.848 0 0 1-13.1328-2.94912 31.01184 31.01184 0 0 1-7.49568-5.00736 30.7712 30.7712 0 0 1-9.94304-19.74784 30.76608 30.76608 0 0 1-0.14848-3.01056v-192c0-9.93792 1.93024-19.46112 5.7856-28.5696a72.75008 72.75008 0 0 1 15.70816-23.31136 72.7552 72.7552 0 0 1 23.31136-15.71328 72.59648 72.59648 0 0 1 28.5696-5.77536h725.34528c9.93792 0 19.46112 1.92512 28.5696 5.77536a72.72448 72.72448 0 0 1 23.31136 15.71328 72.82176 72.82176 0 0 1 15.71328 23.31136 72.63744 72.63744 0 0 1 5.77536 28.5696v192a31.68256 31.68256 0 0 1-0.3328 4.5056 27.40224 27.40224 0 0 1-0.58368 2.95424 30.73024 30.73024 0 0 1-4.25984 9.60512 29.70624 29.70624 0 0 1-2.78016 3.56352 31.11936 31.11936 0 0 1-5.69344 4.9152 33.31072 33.31072 0 0 1-2.5856 1.54624 31.39584 31.39584 0 0 1-5.56544 2.304 30.58688 30.58688 0 0 1-8.91904 1.32096z" fill="#8a8a8a" p-id="9066"></path><path d="M372.18816 106.67008v170.65984a31.2832 31.2832 0 0 1-0.59392 5.99552 30.14144 30.14144 0 0 1-2.37056 7.1424 30.88384 30.88384 0 0 1-7.168 9.6256 31.45728 31.45728 0 0 1-4.864 3.584 30.80704 30.80704 0 0 1-11.33056 4.0448 30.8224 30.8224 0 0 1-10.5472-0.256 30.73024 30.73024 0 0 1-9.84064-3.7888 31.232 31.232 0 0 1-5.95968-4.62336 30.32576 30.32576 0 0 1-4.64384-5.92896 30.99648 30.99648 0 0 1-3.06176-6.87616 30.47936 30.47936 0 0 1-1.3312-8.91904V106.67008a30.82752 30.82752 0 0 1 1.3312-8.91904 30.84288 30.84288 0 0 1 5.67296-10.5728 30.72 30.72 0 0 1 12.04736-8.89344 31.5392 31.5392 0 0 1 5.7856-1.74592 30.67904 30.67904 0 0 1 9.04192-0.44544 30.8224 30.8224 0 0 1 14.12096 5.03296 30.79168 30.79168 0 0 1 12.78464 18.0736 30.14144 30.14144 0 0 1 0.92672 7.47008zM713.16992 106.67008v170.65984a31.68256 31.68256 0 0 1-0.58368 5.99552 35.7888 35.7888 0 0 1-0.72704 2.92352 34.74944 34.74944 0 0 1-1.00864 2.8416 29.1072 29.1072 0 0 1-1.28 2.72384 28.19584 28.19584 0 0 1-1.54112 2.5856 30.13632 30.13632 0 0 1-6.01088 6.6816 29.11744 29.11744 0 0 1-2.4064 1.792 28.38016 28.38016 0 0 1-2.56512 1.55136 30.27456 30.27456 0 0 1-23.23456 2.304 30.60736 30.60736 0 0 1-8.09472-3.85536 33.16736 33.16736 0 0 1-2.40128-1.792 33.00864 33.00864 0 0 1-2.22208-2.02752 30.78656 30.78656 0 0 1-7.14752-11.37152 26.79808 26.79808 0 0 1-0.8704-2.88768 27.2384 27.2384 0 0 1-0.58368-2.95424 31.67232 31.67232 0 0 1-0.3328-4.5056V106.65984a31.67232 31.67232 0 0 1 0.5888-5.9904 27.2384 27.2384 0 0 1 0.72704-2.92352 29.696 29.696 0 0 1 2.28864-5.56544 31.616 31.616 0 0 1 2.40128-3.81952 29.69088 29.69088 0 0 1 2.92864-3.42016 33.41312 33.41312 0 0 1 2.22208-2.02752 31.88224 31.88224 0 0 1 2.40128-1.792 32.1536 32.1536 0 0 1 2.57024-1.55136 30.27456 30.27456 0 0 1 24.6528-1.83296 30.336 30.336 0 0 1 12.32896 8.2944 32.512 32.512 0 0 1 1.89952 2.3296 30.13632 30.13632 0 0 1 2.40128 3.81952 28.5696 28.5696 0 0 1 1.28 2.72384 29.696 29.696 0 0 1 1.408 4.29568 35.7888 35.7888 0 0 1 0.58368 2.95424 31.42144 31.42144 0 0 1 0.32768 4.5056zM411.38688 805.74976a30.86336 30.86336 0 0 1-7.7312 4.6336 30.0032 30.0032 0 0 1-5.76512 1.74592 30.30528 30.30528 0 0 1-11.9808 0 29.7472 29.7472 0 0 1-5.76512-1.74592 30.87872 30.87872 0 0 1-12.92288-10.08128 29.17376 29.17376 0 0 1-1.67424-2.5088 30.05952 30.05952 0 0 1-3.0464-6.87616 31.9232 31.9232 0 0 1-0.98816-4.40832 31.01696 31.01696 0 0 1 0-9.01632 31.72864 31.72864 0 0 1 0.98816-4.40832 31.3856 31.3856 0 0 1 2.304-5.56544 30.05952 30.05952 0 0 1 2.41664-3.8144 29.76256 29.76256 0 0 1 2.95424-3.42528l241.3568-241.3568a31.34464 31.34464 0 0 1 4.65408-3.81952 33.36704 33.36704 0 0 1 2.5856-1.55136 33.0496 33.0496 0 0 1 4.13184-1.83296 30.64832 30.64832 0 0 1 14.85824-1.4592 30.25408 30.25408 0 0 1 5.84192 1.4592 31.92832 31.92832 0 0 1 2.78528 1.15712 33.0496 33.0496 0 0 1 2.65728 1.41824 28.72832 28.72832 0 0 1 2.5088 1.67424 30.9504 30.9504 0 0 1 3.42016 2.95424 31.3088 31.3088 0 0 1 3.81952 4.65408 30.48448 30.48448 0 0 1 4.58752 11.07456 30.24384 30.24384 0 0 1 0.44544 9.00608 30.29504 30.29504 0 0 1-1.1776 5.90336 30.26944 30.26944 0 0 1-3.85536 8.15104 30.16704 30.16704 0 0 1-3.81952 4.65408l-241.3568 241.3568a30.2592 30.2592 0 0 1-2.23232 2.02752z" fill="#8a8a8a" p-id="9067"></path><path d="M413.62432 518.92224l241.3568 241.3568a31.34464 31.34464 0 0 1 3.81952 4.65408 33.36704 33.36704 0 0 1 1.55136 2.5856 29.24544 29.24544 0 0 1 2.304 5.56544 30.54592 30.54592 0 0 1-1.01376 20.67456 29.07136 29.07136 0 0 1-2.03264 4.03456 28.72832 28.72832 0 0 1-1.67424 2.5088 34.62656 34.62656 0 0 1-1.91488 2.3296 31.34464 31.34464 0 0 1-5.69344 4.9152 32.16384 32.16384 0 0 1-5.30944 2.83648 33.3056 33.3056 0 0 1-2.8416 1.01376 31.49824 31.49824 0 0 1-4.40832 0.99328 31.90272 31.90272 0 0 1-9.01632 0 32.24576 32.24576 0 0 1-5.84192-1.46432 34.99008 34.99008 0 0 1-2.78528-1.152 29.24544 29.24544 0 0 1-2.65728-1.42336 33.57696 33.57696 0 0 1-3.69664-2.60096 31.60576 31.60576 0 0 1-2.23232-2.02752l-241.3568-241.3568a30.68416 30.68416 0 0 1-4.62848-37.51424 32.9216 32.9216 0 0 1 1.67424-2.50368 29.76256 29.76256 0 0 1 5.18656-5.44768 29.94176 29.94176 0 0 1 6.35392-4.02432 33.42336 33.42336 0 0 1 2.78528-1.152 30.19776 30.19776 0 0 1 5.84192-1.46432 31.0528 31.0528 0 0 1 7.52128-0.18432 30.98624 30.98624 0 0 1 10.12224 2.80064 32.62464 32.62464 0 0 1 2.6624 1.41824 31.32928 31.32928 0 0 1 5.92384 4.62848z" fill="#8a8a8a" p-id="9068"></path></svg>