<?xml version="1.0" standalone="no"?><!DOCTYPE svg PUBLIC "-//W3C//DTD SVG 1.1//EN" "http://www.w3.org/Graphics/SVG/1.1/DTD/svg11.dtd"><svg t="1733366638297" class="icon" viewBox="0 0 1024 1024" version="1.1" xmlns="http://www.w3.org/2000/svg" p-id="20526" xmlns:xlink="http://www.w3.org/1999/xlink" width="200" height="200"><path d="M1022 402.598c-4.727 16.525-16.753 26.223-30.717 35.051C759.157 584.398 527.181 731.387 295.17 878.32c-21.956 13.906-43.849 27.91-65.899 41.662-24.587 15.33-50.852 9.426-66.436-15.109-51.048-80.369-102.01-160.797-152.789-241.338C6.465 657.857 4.642 651.07 2 644.801v-13.732c3.714-18.174 16.034-28.848 31.063-38.348 253.915-160.513 507.662-321.296 761.451-482.01 25.163-15.934 51.394-10.319 67.387 14.854 51.059 80.366 101.979 160.82 152.811 241.329 3.061 4.846 4.888 10.469 7.29 15.729-0.002 6.657-0.002 13.317-0.002 19.975zM204.986 897.16c1.889-0.904 5.771-2.313 9.181-4.467 80.659-50.986 161.269-102.053 241.885-153.105 175.114-110.9 350.228-221.801 525.332-332.71 11.364-7.197 12.956-14.123 5.779-25.467a617912.866 617912.866 0 0 0-151.494-239.233c-6.462-10.2-14.002-11.827-24.205-5.37a421237.91 421237.91 0 0 0-110.659 70.052C514.276 324.99 327.748 443.125 141.22 561.262c-33.019 20.91-66.04 41.816-99.036 62.764-9.787 6.213-11.491 13.338-5.696 23.172 0.949 1.611 1.95 3.193 2.95 4.773 29.475 46.543 58.952 93.082 88.43 139.623 20.356 32.143 40.739 64.268 61.046 96.439 3.288 5.213 7.259 9.082 16.072 9.127z m326.366 62.256c10.103-0.977 20.229-1.756 30.304-2.957 78.854-9.395 150.946-36.686 214.329-84.59 119.754-90.504 179.248-211.938 182.149-361.562 0.175-8.992-0.62-18.004-1.006-28.096-6.911 4.365-12.415 8.527-18.496 11.516-8.895 4.371-14.427 9.975-11.669 20.722 0.441 1.721-0.226 3.709-0.268 5.576-1.47 67.514-18.025 131.131-50.267 190.432-43.946 80.83-107.952 140.689-191.351 179.363-74.364 34.484-152.394 45.418-233.566 33.807-43.141-6.17-84.236-18.943-123.433-37.939-1.732-0.838-4.404-2.012-5.613-1.297-9.69 5.727-19.135 11.873-28.793 17.979 0.917 0.924 1.157 1.311 1.503 1.498 50.365 27.516 104.021 44.861 160.978 51.904 11.72 1.451 23.496 2.443 35.247 3.645l39.952-0.001zM65.805 541.445c7.505-4.709 14.799-9.811 22.585-13.998 5.562-2.992 7.03-6.83 6.983-12.936-0.533-70.207 15.774-136.431 48.893-198.262 46.062-85.994 114.406-148.193 203.854-186.761 66.063-28.484 135.203-38.352 206.792-30.697 48.621 5.2 94.909 18.465 138.869 39.908 1.865 0.91 4.84 1.813 6.273 0.972 9.409-5.523 18.536-11.525 28.101-17.591-112.105-65.376-283.711-87.334-435.226 0.4C133.244 214.947 61.205 357.717 63.377 539.73l2.428 1.715zM296.672 395.2c1.616-1.047 2.667-3.105 3.725-4.848 43.419-71.409 106.554-111.713 189.743-120.583 3.549-0.378 7.263-1.751 10.331-3.602 11.384-6.864 22.537-14.113 33.761-21.242 2.337-1.485 4.604-3.076 7.677-5.135-130.297-15.856-252.55 66.919-290.345 184.13 15.714-9.964 30.475-19.248 45.108-28.72z m176.397-211.216c1.965 1.997 3.405 5.657 3.209 8.422-0.647 9.074-2.157 18.086-3.43 27.858 8.485-4.89 16.479-9.28 24.23-14.063 3.17-1.956 5.706-2.237 9.112-0.494 8.042 4.116 16.32 7.775 25.471 12.073-2.037-9.739-3.571-18.502-5.795-27.086-1.034-3.991-0.186-6.565 2.595-9.364 6.22-6.263 12.146-12.82 19.039-20.161-9.917-1.08-18.486-2.337-27.099-2.82-4.594-0.257-6.954-2.172-8.917-6.1-3.862-7.732-8.224-15.217-12.915-23.784-4.19 9.404-7.622 17.805-11.723 25.867-1.164 2.292-4.03 4.564-6.527 5.182-8.627 2.132-17.435 3.53-27.905 5.54 7.649 6.913 14.453 12.625 20.655 18.93z m-128.208 71.555c1.292-2.021 4.16-3.907 6.521-4.221 9.134-1.216 18.357-1.772 28.638-2.671-6.7-7.428-12.473-14.171-18.649-20.523-2.814-2.896-3.448-5.577-2.423-9.419 2.305-8.641 4.164-17.402 6.413-27.005-8.692 3.86-16.484 6.82-23.766 10.73-4.964 2.664-8.64 1.986-13.035-0.995-6.812-4.621-14.028-8.645-21.911-13.433 1.063 10.204 2.291 19.243 2.767 28.323 0.135 2.588-1.225 6.018-3.097 7.809-6.526 6.241-13.576 11.932-21.305 18.59 10.137 2.186 19.101 3.825 27.866 6.199 2.476 0.67 5.243 3.068 6.372 5.402 3.862 7.991 7.057 16.304 11.124 25.964 5.257-9.103 9.596-17.103 14.485-24.75z m-134.753 71.218c-2.553 3.703-5.362 4.834-9.859 4.563-8.502-0.513-17.058-0.148-26.19-0.148 4.921 6.968 9.275 13.803 14.335 20.07 3.459 4.283 3.843 8.066 1.72 13.031-3.189 7.457-5.694 15.205-8.987 24.188 8.367-2.576 15.31-4.074 21.7-6.848 7.235-3.141 12.682-2.049 18.325 3.381 5.218 5.02 11.347 9.094 18.112 14.396 0-10.047 0.307-18.371-0.114-26.658-0.254-4.996 1.442-7.961 5.685-10.527 7.327-4.432 14.279-9.484 22.188-14.818-9.798-3.359-18.164-6.477-26.698-9.038-3.71-1.115-5.344-3.129-6.266-6.705-2.224-8.618-4.804-17.145-7.593-26.948-6.026 8.066-11.424 14.904-16.358 22.061z m467.06 403.942c41.246-31.223 91.212-100.756 92.186-129.605-12.943 8.193-25.914 16.039-38.441 24.535-4.272 2.898-8.253 6.93-10.98 11.307-39.998 64.223-97.074 102.922-171.717 115.568-7.749 1.313-16.563 0.383-23.128 3.834-15.186 7.98-29.294 18.012-44.95 27.916 53.903 8.129 131.18-3.705 197.03-53.555z m36.139 53.656c-4.506-0.836-7.185-2.727-8.772-7.328-2.831-8.203-6.493-16.119-10.113-24.904-4.701 7.986-9.326 15.127-13.183 22.658-2.393 4.668-5.446 6.473-10.627 6.609-8.284 0.217-16.549 1.25-26.037 2.039 7.104 8.002 13.321 14.674 19.076 21.725 1.397 1.715 2.13 4.846 1.692 7.035-1.806 9.066-4.176 18.02-6.628 28.217 8.625-3.77 16.314-6.756 23.638-10.463 4.812-2.434 8.542-2.283 13.018 0.879 6.773 4.785 14.073 8.826 22.041 13.734-0.994-10.344-1.662-19.238-2.785-28.076-0.48-3.781 0.685-6.156 3.566-8.475 6.923-5.57 13.6-11.445 21.348-18.021-9.615-2.091-17.884-4.082-26.234-5.629z m-208.684 88.641c2.514 0.439 5.466 2.564 6.811 4.771 4.673 7.67 8.728 15.719 13.595 24.689 4.331-9.52 7.863-17.898 12-25.967 1.099-2.145 3.837-4.264 6.189-4.809 8.949-2.078 18.049-3.506 28.193-5.379-7.147-6.563-13.175-12.543-19.702-17.92-3.909-3.219-4.786-6.645-3.965-11.381 1.431-8.25 2.377-16.584 3.687-26.033-8.698 4.926-16.356 9.045-23.773 13.557-3.518 2.139-6.369 2.559-10.217 0.479-7.78-4.211-15.91-7.775-24.79-12.035 1.982 9.91 4.044 18.777 5.377 27.756 0.38 2.557-0.585 6.088-2.258 8.035-5.893 6.871-12.36 13.246-19.402 20.641 10.255 1.241 19.32 2.047 28.255 3.596z m283.363-182.312c2.387 0.936 4.889 3.596 5.754 6.029 3.017 8.475 5.341 17.197 8.286 27.021 5.906-8 11.27-14.818 16.104-21.994 2.531-3.756 5.385-4.896 9.812-4.686 8.533 0.404 17.102 0.119 26.405 0.119-5.09-7.086-9.6-14.049-14.838-20.41-3.365-4.086-3.75-7.617-1.774-12.4 3.186-7.715 5.679-15.717 8.824-24.619-9.474 2.988-17.673 5.223-25.587 8.215-4.227 1.598-7.184 1.205-10.646-1.684-6.733-5.619-13.866-10.76-21.847-16.873 0 9.67-0.416 17.789 0.141 25.838 0.4 5.785-1.781 9.107-6.529 11.992-6.889 4.182-13.384 9.01-21.037 14.24 9.685 3.245 18.445 5.878 26.932 9.212zM289.925 532.73l14.987 22.285c0.501 1.037 0.323 1.943-0.53 2.711l-69.689 46.871c-1.352 0.908-1.753 1.768-1.208 2.578l13.353 19.854c0.637 0.945 1.676 1.033 3.116 0.258l74.551-50.143c1.035-0.498 1.94-0.32 2.711 0.531l14.442 21.473c0.501 1.039 0.324 1.943-0.53 2.711l-74.551 50.143c-1.26 1.045-1.57 2.039-0.936 2.982l66.083 98.254c0.545 0.811 0.413 1.486-0.397 2.033l-28.767 19.348c-0.947 0.637-1.76 0.596-2.438-0.125l-66.084-98.254c-0.771-0.852-1.676-1.029-2.711-0.531l-73.336 49.326c-0.898 0.412-1.668 0.143-2.305-0.805l-14.443-21.473c-0.635-0.943-0.593-1.758 0.125-2.438l73.336-49.326c0.854-0.766 1.031-1.672 0.531-2.709l-13.354-19.854c-0.682-0.719-1.495-0.76-2.438-0.127l-70.5 47.418c-1.172 0.596-2.21 0.508-3.115-0.258l-14.988-22.285c-0.365-1.123-0.055-2.119 0.936-2.982l70.094-47.145c0.99-0.859 1.301-1.854 0.936-2.982l-7.357-10.939c-0.502-1.033-0.324-1.939 0.531-2.711l28.766-19.348c0.902-0.41 1.672-0.141 2.306 0.803l7.085 10.533c1.134 0.811 2.398 0.939 3.794 0.391l69.284-46.598c1.034-0.499 1.939-0.321 2.71 0.53z m-40.044 275.555l-27.552 18.529c-1.037 0.502-1.943 0.324-2.711-0.529l-13.762-20.461c-0.501-1.033-0.323-1.938 0.531-2.711l9.725-6.541c3.915-2.633 5.344-6.338 4.287-11.121L196.4 712.146c-0.229-1.215 0.218-2.301 1.341-3.256l25.931-17.439c2.073-0.998 3.564-0.236 4.479 2.283l13.026 39.492 15.62 44.221c4.608 12.393 2.304 22.674-6.916 30.838zM383.18 685.381l9.724-6.539c1.035-0.498 1.94-0.322 2.711 0.531l14.852 22.08c0.409 0.902 0.141 1.672-0.803 2.307l-28.767 19.348c-10.898 6.543-20.427 5.5-28.588-3.133l-70.823-65.055c-0.771-0.852-0.594-1.758 0.531-2.711l27.955-18.803c1.172-0.59 2.21-0.502 3.116 0.258l56.405 49.742c4.892 4.36 9.456 5.02 13.687 1.975z m31.068-182.719l-25.525 17.168c-0.811 0.545-1.669 0.143-2.578-1.209l-10.9-16.207c-0.635-0.943-0.594-1.756 0.126-2.438l10.939-7.357c1.981-1.135 2.606-3.124 1.872-5.967l-8.918-28.133c-0.774-2.025-0.602-3.518 0.523-4.471l56.319-37.879c0.9-0.408 1.76-0.008 2.577 1.209l12.808 19.042c0.91 1.353 0.957 2.298 0.147 2.843l-10.534 7.086c-0.991 0.864-1.032 1.678-0.125 2.438l2.99 2.697c1.678 1.619 3.483 1.974 5.421 1.061l8.104-5.449c1.034-0.499 1.94-0.322 2.711 0.529l10.628 15.802c0.5 1.038 0.322 1.943-0.531 2.712l-17.827 11.99c-7.249 4.682-14.247 4.483-20.993-0.592l-12.235-11.191c-2.169-0.306-3.521 0.604-4.052 2.726l4.677 17.452c1.967 6.721 0.092 12.101-5.624 16.138z m124.975-72.287l15.888 10.498c0.905 0.766 1.944 0.854 3.116 0.258l24.31-16.351c1.126-0.362 2.121-0.052 2.983 0.937l11.99 17.826c0.5 1.038 0.323 1.943-0.531 2.711l-36.465 24.525c-3.868 2.998-7.75 3.646-11.639 1.943l-13.029-7.123c-1.495-0.76-2.76-0.89-3.794-0.392l-64.017 43.057c-0.99 0.864-1.348 2.083-1.068 3.661l2.363 14.886c0.33 3.705-1.146 6.463-4.436 8.279l-46.189 31.066c-0.991 0.275-1.85-0.125-2.577-1.209l-11.719-17.422c-0.727-1.078-0.773-2.025-0.146-2.842l32.414-21.801c0.721-0.678 1.03-1.674 0.935-2.984l-3.459-18.268c-0.279-1.577 0.213-2.888 1.473-3.934l99.671-67.037c1.576-0.86 2.886-0.955 3.926-0.284zM421.976 571.02l178.273-119.904c1.035-0.498 2.03-0.188 2.983 0.937l11.718 17.423c0.593 1.174 0.505 2.212-0.258 3.115L436.42 592.494c-0.992 0.275-1.851-0.125-2.578-1.209l-11.719-17.422c-0.818-1.215-0.866-2.162-0.147-2.843z m34.419 38.05l-13.723-10.777c-0.953-1.125-0.865-2.164 0.259-3.117l22.689-15.26c0.993-0.273 2.212 0.084 3.661 1.068l8.279 4.436c0.949 0.537 1.896 0.488 2.843-0.148l14.586-9.811c1.126-0.361 2.121-0.051 2.983 0.938l10.083 14.99c0.772 1.443 0.685 2.482-0.259 3.115l-26.74 17.986c-8.331 4.823-16.552 3.682-24.661-3.42z m8.232 26.239l177.463-119.36c1.308-0.68 2.346-0.594 3.116 0.26l14.034 20.865c0.682 1.307 0.461 2.436-0.663 3.389L481.114 659.822c-1.174 0.592-2.302 0.371-3.388-0.664l-14.035-20.865c-0.365-1.125-0.054-2.119 0.936-2.984z m11.207-174.068l-11.174-16.612c-0.501-1.032-0.324-1.938 0.531-2.71l7.293-4.906c1.621-1.09 2.246-2.49 1.879-4.205l-9.478-32.464c-0.501-1.621 0.214-2.889 2.151-3.802l67.258-45.236c0.993-0.271 1.852 0.129 2.578 1.209l13.08 19.447c0.637 0.947 0.596 1.762-0.125 2.439l-19.043 12.807c-0.855 0.773-0.76 1.496 0.279 2.166l6.246 4.037c1.042 0.674 2.08 0.762 3.116 0.259l15.396-10.355c0.901-0.409 1.671-0.141 2.306 0.803l10.082 14.991c0.637 0.946 0.596 1.761-0.125 2.438l-27.146 18.258c-4.726 3.767-9.507 4.239-14.35 1.413l-22-15.213c-2.17-0.307-3.521 0.603-4.053 2.725l5.78 22.594c1.7 6.9-0.535 12.326-6.704 16.277l-21.068 14.171c-1.035 0.503-1.939 0.325-2.709-0.531z m42.027 110.607l-16.3-11.986c-0.998-0.896-1.046-1.844-0.147-2.844l22.285-14.988c1.215-0.816 2.39-0.82 3.52-0.014l7.742 5.385c1.042 0.674 2.08 0.762 3.116 0.258l12.56-8.447c1.172-0.59 2.209-0.502 3.116 0.258l10.628 15.803c0.364 1.129 0.055 2.123-0.936 2.982l-22.689 15.26c-7.879 4.909-15.512 4.354-22.895-1.667zM584.373 543l-11.172-16.611c-0.502-1.033-0.324-1.938 0.53-2.711l19.854-13.353c0.72-0.678 1.03-1.672 0.936-2.982l-0.714-8.936c-0.457-1.26-0.369-2.299 0.258-3.115l23.095-15.533c1.488-0.413 2.438 0.125 2.851 1.613l4.432 24.088c1.657 7.712-0.801 13.681-7.375 17.906l-29.982 20.166c-1.037 0.503-1.942 0.325-2.713-0.532zM823.99 391.253l13.216 19.65c0.635 1.531 0.505 2.796-0.391 3.794l-104.532 70.307c-1.535 0.637-2.754 0.28-3.662-1.068l-13.216-19.65c-0.457-1.26 0.036-2.571 1.474-3.934l34.033-22.891c0.943-0.635 1.213-1.403 0.804-2.306l-15.533-23.095c-0.681-0.719-1.495-0.76-2.438-0.125l-36.06 24.254c-1.128 0.367-2.122 0.057-2.983-0.936l-13.898-20.664c-0.412-0.9-0.143-1.669 0.804-2.305l36.06-24.254c0.854-0.768 1.031-1.673 0.531-2.711l-10.628-15.802c-0.771-0.852-1.677-1.028-2.711-0.53l-34.845 23.436c-1.44 0.776-2.479 0.688-3.115-0.258l-16.078-23.904c-1.135-1.395-1.775-2.926-1.915-4.598l-6.286-46.967c-0.549-1.396-1.635-1.843-3.256-1.341l-14.586 9.81c-1.532 0.64-2.66 0.42-3.389-0.663l-15.26-22.689c-0.635-0.943-0.324-1.938 0.936-2.983l104.533-70.308c1.17-0.589 2.209-0.502 3.115 0.258l15.533 23.094c0.364 1.13 0.055 2.125-0.936 2.983l-49.836 33.519c-0.945 0.636-1.529 1.814-1.746 3.528l8.326 49.126c0.596 1.76 1.41 2.39 2.445 1.886l34.845-23.436c0.63-0.814 0.581-1.761-0.147-2.843l-17.439-25.931c-0.276-0.992 0.125-1.85 1.208-2.578l26.335-17.713c0.811-0.545 1.488-0.413 2.033 0.397l19.894 29.577c9.266 14.364 7.692 26.603-4.726 36.72l-11.75 7.903c-0.854 0.773-1.031 1.678-0.53 2.711l11.173 16.612c0.77 0.856 1.676 1.034 2.711 0.53l32.008-21.528c0.943-0.634 1.758-0.594 2.438 0.125l13.353 19.854c0.501 1.037 0.323 1.943-0.529 2.71l-32.414 21.801c-0.537 0.95-0.398 2.034 0.42 3.249l15.533 23.094c0.545 0.811 1.223 0.943 2.032 0.398l34.845-23.436c1.666-0.723 3.065-0.686 4.197 0.121z m1.283-17.339L724.172 223.597c-0.635-0.943-0.594-1.757 0.125-2.438l25.525-17.168c1.44-0.771 2.615-0.774 3.521-0.014l101.102 150.317c0.408 0.9 0.14 1.67-0.804 2.305l-12.966 8.721-13.37 8.992c-0.809 0.544-1.487 0.411-2.032-0.398z m43.941-17.787l-108.187-160.85c-0.502-1.033-0.324-1.938 0.531-2.71l26.336-17.713c1.215-0.229 2.165 0.309 2.85 1.613L902.201 342.18c7.277 13.739 3.666 25.288-10.828 34.646l-33.629 22.618c-1.307 0.682-2.213 0.504-2.711-0.53l-12.672-18.841c-0.77-0.852-0.593-1.757 0.531-2.711l26.336-17.713c0.854-0.768 0.85-1.941-0.014-3.522z" fill="#9C9C9C" p-id="20527"></path></svg>