<?xml version="1.0" standalone="no"?><!DOCTYPE svg PUBLIC "-//W3C//DTD SVG 1.1//EN" "http://www.w3.org/Graphics/SVG/1.1/DTD/svg11.dtd"><svg t="1733367596252" class="icon" viewBox="0 0 1024 1024" version="1.1" xmlns="http://www.w3.org/2000/svg" p-id="8898" xmlns:xlink="http://www.w3.org/1999/xlink" width="200" height="200"><path d="M512 512m-512 0a512 512 0 1 0 1024 0 512 512 0 1 0-1024 0Z" fill="#FFF5E4" p-id="8899"></path><path d="M395.666773 689.957547c0-45.786453 0.28672-91.572907-0.197973-137.325227-0.129707-13.325653 4.66944-20.29568 17.6128-24.773973 49.411413-16.991573 78.629547-52.954453 92.992853-102.242987 4.99712-17.148587 9.598293-34.563413 16.575147-50.906453 11.311787-26.487467 32.098987-35.79904 60.962133-29.641387 22.275413 4.77184 36.317867 23.804587 36.543147 50.455893 0.293547 33.983147 0.034133 67.966293 0.129707 101.94944 0.068267 18.61632 3.304107 22.439253 22.309546 22.637227 38.229333 0.423253 76.4928 1.297067 114.660694-0.197973 33.983147-1.324373 58.688853 20.821333 50.128213 58.69568-10.246827 45.3632-23.18336 90.146133-35.826347 134.956373-7.7824 27.62752-16.930133 54.900053-25.879893 82.172587-11.83744 36.092587-33.91488 52.046507-71.202133 52.046506H423.867733c-26.91072 0-28.24192-1.297067-28.24192-27.600213 0.034133-43.383467 0.034133-86.801067 0.034134-130.225493z" fill="#FF8E12" p-id="8900"></path><path d="M354.747733 688.954027c0 44.35968 0.095573 88.753493-0.068266 133.113173-0.068267 21.824853-4.11648 25.68192-25.483947 25.74336-6.130347 0.034133-12.260693 0.034133-18.425173 0-25.060693-0.129707-36.9664-11.803307-37.096107-37.485227-0.259413-46.237013-0.095573-92.50816-0.095573-138.786133 0-33.983147-0.129707-67.966293 0.068266-101.94944 0.157013-27.006293 13.23008-39.91552 39.847254-40.011093 41.219413-0.16384 41.219413-0.16384 41.219413 40.434346 0.068267 39.621973 0.068267 79.284907 0.034133 118.941014z m423.000747-162.97984c0-1.2288-0.06144-2.430293-0.095573-3.659094a64.45056 64.45056 0 0 0-20.363947-2.402986c-38.167893 1.49504-76.43136 0.6144-114.660693 0.197973-18.971307-0.197973-22.248107-4.027733-22.309547-22.637227-0.095573-33.983147 0.16384-67.966293-0.136533-101.94944-0.218453-26.651307-14.29504-45.684053-36.53632-50.449066-28.863147-6.198613-49.650347 3.140267-60.962134 29.627733-6.976853 16.349867-11.578027 33.792-16.575146 50.91328-14.363307 49.322667-43.574613 85.251413-92.99968 102.242987-12.970667 4.478293-17.769813 11.44832-17.605974 24.773973 0.49152 45.786453 0.197973 91.5456 0.197974 137.325227v130.259626c0 26.29632 1.324373 27.593387 28.24192 27.593387h140.991146c125.07136-53.241173 212.814507-177.309013 212.814507-321.836373z" fill="#FCA315" p-id="8901"></path><path d="M313.562453 529.544533c-26.624 0.095573-39.7312 13.038933-39.85408 40.01792-0.197973 33.983147-0.068267 67.966293-0.068266 101.94944 0 24.930987-0.027307 49.8688-0.027307 74.806614 19.162453 3.242667 38.843733 5.05856 58.914133 5.05856 7.49568 0 14.882133-0.32768 22.248107-0.77824 0-20.56192-0.034133-41.117013-0.034133-61.678934V569.97888c0.034133-40.564053 0-40.598187-41.178454-40.434347z m347.900587-9.209173c-6.28736-0.068267-12.547413-0.16384-18.8416-0.22528-18.96448-0.197973-22.24128-4.027733-22.30272-22.637227-0.1024-33.983147 0.157013-67.966293-0.136533-101.94944-0.22528-26.651307-14.29504-45.684053-36.543147-50.449066-28.85632-6.198613-49.64352 3.140267-60.962133 29.627733-6.9632 16.349867-11.5712 33.792-16.56832 50.91328-14.363307 49.322667-43.58144 85.251413-92.99968 102.242987-12.970667 4.478293-17.769813 11.44832-17.6128 24.773973 0.49152 45.786453 0.2048 91.5456 0.2048 137.325227v55.64416c123.344213-22.534827 224.126293-109.73184 265.762133-225.266347z" fill="#FCB138" p-id="8902"></path><path d="M587.537067 346.077867a49.001813 49.001813 0 0 0-3.8912-1.010347c-28.863147-6.191787-49.650347 3.147093-60.962134 29.641387-6.976853 16.34304-11.578027 33.792-16.575146 50.906453-14.363307 49.322667-43.58144 85.251413-92.99968 102.242987-12.970667 4.478293-17.769813 11.44832-17.605974 24.773973 0.136533 13.585067 0.197973 27.170133 0.22528 40.7552 97.737387-46.91968 170.243413-137.966933 191.808854-247.309653zM313.562453 529.544533c-26.624 0.095573-39.724373 13.038933-39.85408 40.01792-0.129707 18.96448-0.129707 37.901653-0.129706 56.838827a347.067733 347.067733 0 0 0 81.196373-16.534187v-39.888213c0-40.564053-0.034133-40.598187-41.212587-40.434347z" fill="#FFC65E" p-id="8903"></path><path d="M688.073387 272.984747c0 3.249493 0.24576 6.362453 0.67584 8.656213 0.43008 2.300587 1.017173 3.590827 1.631573 3.590827s1.201493-1.297067 1.631573-3.590827 0.67584-5.40672 0.67584-8.656213c0-3.242667-0.24576-6.355627-0.67584-8.649387-0.43008-2.300587-1.017173-3.590827-1.631573-3.590827s-1.201493 1.297067-1.631573 3.590827a49.759573 49.759573 0 0 0-0.67584 8.649387zM698.9824 271.44192c0.805547 1.39264 1.652053 2.737493 2.49856 3.966293 0.83968 1.2288 1.65888 2.31424 2.41664 3.188054 0.750933 0.88064 1.426773 1.536 1.972907 1.92512 0.55296 0.395947 0.969387 0.518827 1.2288 0.36864 0.26624-0.157013 0.36864-0.580267 0.300373-1.24928a11.9808 11.9808 0 0 0-0.67584-2.676054 36.20864 36.20864 0 0 0-1.55648-3.6864 62.737067 62.737067 0 0 0-2.184533-4.143786 49.64352 49.64352 0 0 0-4.9152-7.161174c-1.522347-1.774933-2.676053-2.594133-3.208534-2.286933-0.525653 0.3072-0.38912 1.713493 0.382294 3.918507 0.771413 2.205013 2.116267 5.024427 3.741013 7.837013zM707.74784 264.68352c2.812587 1.61792 5.625173 2.962773 7.830187 3.741013 2.205013 0.771413 3.618133 0.907947 3.925333 0.375467 0.300373-0.525653-0.518827-1.67936-2.29376-3.208533a49.21344 49.21344 0 0 0-7.154347-4.908374 49.5616 49.5616 0 0 0-7.837013-3.741013c-2.205013-0.771413-3.611307-0.907947-3.918507-0.382293-0.3072 0.53248 0.518827 1.686187 2.286934 3.208533 1.774933 1.522347 4.348587 3.290453 7.161173 4.9152zM699.712853 252.115627c0 0.6144 1.283413 1.201493 3.584 1.6384 2.29376 0.43008 5.40672 0.669013 8.656214 0.669013 3.242667 0 6.355627-0.238933 8.656213-0.67584 2.29376-0.43008 3.584-1.017173 3.584-1.631573s-1.29024-1.194667-3.584-1.631574a49.568427 49.568427 0 0 0-8.656213-0.67584c-3.249493 0-6.362453 0.24576-8.656214 0.682667-2.300587 0.43008-3.584 1.017173-3.584 1.624747zM698.73664 247.58272c0.157013 0.259413 0.580267 0.361813 1.24928 0.300373 0.67584-0.068267 1.583787-0.300373 2.676053-0.682666 1.092267-0.382293 2.341547-0.907947 3.6864-1.549654a60.35456 60.35456 0 0 0 8.116907-4.683093c1.2288-0.846507 2.307413-1.665707 3.188053-2.423467a12.4928 12.4928 0 0 0 1.92512-1.972906c0.38912-0.546133 0.512-0.969387 0.361814-1.2288-0.3072-0.53248-1.713493-0.395947-3.918507 0.375466a49.5616 49.5616 0 0 0-7.837013 3.74784 49.21344 49.21344 0 0 0-7.154347 4.9152c-1.774933 1.51552-2.594133 2.669227-2.29376 3.201707zM695.58272 244.135253c0.26624 0.150187 0.682667 0.027307 1.235627-0.361813 0.546133-0.395947 1.215147-1.051307 1.972906-1.92512a37.6832 37.6832 0 0 0 2.41664-3.188053 59.96544 59.96544 0 0 0 4.68992-8.123734c0.641707-1.338027 1.16736-2.594133 1.549654-3.6864 0.382293-1.092267 0.6144-1.993387 0.67584-2.669226 0.068267-0.67584-0.034133-1.092267-0.300374-1.24928-0.259413-0.150187-0.67584-0.027307-1.2288 0.36864a12.219733 12.219733 0 0 0-1.972906 1.918293 36.29056 36.29056 0 0 0-2.41664 3.19488 59.96544 59.96544 0 0 0-4.68992 8.11008c-0.641707 1.344853-1.16736 2.594133-1.549654 3.6864-0.382293 1.092267-0.6144 2.00704-0.682666 2.676053-0.06144 0.67584 0.04096 1.092267 0.300373 1.24928zM688.776533 230.550187c0 3.242667 0.238933 6.355627 0.67584 8.649386 0.43008 2.300587 1.017173 3.590827 1.631574 3.590827 0.607573 0 1.194667-1.297067 1.631573-3.590827 0.43008-2.29376 0.67584-5.40672 0.67584-8.649386 0-3.249493-0.24576-6.362453-0.67584-8.656214-0.436907-2.300587-1.024-3.584-1.631573-3.584-0.6144 0-1.201493 1.283413-1.631574 3.584a49.097387 49.097387 0 0 0-0.67584 8.656214zM678.42048 234.304853c0.805547 1.39264 1.652053 2.74432 2.49856 3.97312 0.83968 1.2288 1.665707 2.307413 2.41664 3.188054 0.75776 0.873813 1.426773 1.529173 1.972907 1.92512 0.55296 0.38912 0.969387 0.512 1.235626 0.361813 0.259413-0.150187 0.361813-0.57344 0.300374-1.24928a12.465493 12.465493 0 0 0-0.682667-2.669227 37.635413 37.635413 0 0 0-1.549653-3.6864 59.692373 59.692373 0 0 0-2.19136-4.150613 49.472853 49.472853 0 0 0-4.9152-7.154347c-1.522347-1.774933-2.676053-2.594133-3.208534-2.29376-0.525653 0.3072-0.38912 1.72032 0.382294 3.925334 0.771413 2.205013 2.116267 5.024427 3.741013 7.830186zM671.35488 242.817707c2.812587 1.624747 5.625173 2.9696 7.830187 3.741013 2.205013 0.771413 3.618133 0.907947 3.925333 0.382293 0.300373-0.53248-0.518827-1.686187-2.29376-3.208533a49.527467 49.527467 0 0 0-7.154347-4.9152 49.47968 49.47968 0 0 0-7.837013-3.741013c-2.205013-0.771413-3.618133-0.907947-3.918507-0.375467-0.3072 0.525653 0.518827 1.67936 2.286934 3.208533 1.774933 1.51552 4.348587 3.283627 7.161173 4.908374zM657.271467 251.316907c0 0.6144 1.29024 1.201493 3.584 1.6384 2.29376 0.43008 5.40672 0.669013 8.656213 0.669013 3.242667 0 6.355627-0.238933 8.656213-0.67584 2.29376-0.43008 3.584-1.024 3.584-1.631573 0-0.6144-1.29024-1.194667-3.584-1.631574a49.493333 49.493333 0 0 0-8.656213-0.67584c-3.249493 0-6.362453 0.24576-8.656213 0.682667-2.29376 0.43008-3.584 1.010347-3.584 1.624747zM661.517653 268.1856c0.3072 0.53248 1.713493 0.395947 3.918507-0.375467 2.205013-0.771413 5.024427-2.116267 7.837013-3.741013 2.812587-1.624747 5.38624-3.392853 7.154347-4.9152 1.774933-1.522347 2.594133-2.676053 2.286933-3.208533-0.300373-0.525653-1.706667-0.38912-3.918506 0.382293-2.205013 0.771413-5.024427 2.116267-7.830187 3.741013a49.431893 49.431893 0 0 0-7.161173 4.9152c-1.774933 1.522347-2.594133 2.676053-2.286934 3.208534zM673.66912 280.61696c0.26624 0.150187 0.682667 0.027307 1.2288-0.361813 0.55296-0.395947 1.2288-1.04448 1.979733-1.92512 0.750933-0.88064 1.570133-1.959253 2.41664-3.188054a60.982613 60.982613 0 0 0 4.68992-8.116906c0.641707-1.344853 1.16736-2.594133 1.549654-3.6864 0.382293-1.092267 0.6144-2.000213 0.67584-2.676054 0.068267-0.669013-0.034133-1.092267-0.293547-1.24928-0.26624-0.150187-0.682667-0.027307-1.235627 0.36864-0.546133 0.38912-1.221973 1.04448-1.972906 1.92512-0.750933 0.873813-1.570133 1.959253-2.41664 3.188054a60.982613 60.982613 0 0 0-4.68992 8.11008c-0.641707 1.344853-1.16736 2.60096-1.549654 3.6864-0.382293 1.092267-0.6144 2.00704-0.682666 2.676053-0.06144 0.67584 0.04096 1.099093 0.300373 1.24928z" fill="#F07FFD" p-id="8904"></path><path d="M423.089493 316.532053a14.848 14.848 0 1 0 29.696 0 14.848 14.848 0 0 0-29.696 0z" fill="#2C65AF" p-id="8905"></path><path d="M809.274027 293.655893c2.31424 0 4.21888 1.911467 4.21888 4.212054v45.656746a4.23936 4.23936 0 0 1-4.21888 4.212054 4.232533 4.232533 0 0 1-4.212054-4.212054v-45.656746c0-2.402987 1.90464-4.212053 4.212054-4.212054z" fill="#EF8218" p-id="8906"></path><path d="M786.397867 316.429653h45.656746a4.232533 4.232533 0 0 1 4.212054 4.21888 4.232533 4.232533 0 0 1-4.212054 4.212054h-45.656746a4.232533 4.232533 0 0 1-4.212054-4.212054c0.1024-2.409813 1.90464-4.212053 4.212054-4.212053z" fill="#EF8218" p-id="8907"></path><path d="M340.411733 351.648427c5.91872-3.003733 8.82688-9.03168 6.621867-13.346134l-43.547307-84.3776c-2.205013-4.314453-8.82688-5.3248-14.7456-2.307413-5.91872 3.003733-8.833707 9.03168-6.621866 13.346133l43.54048 84.3776c2.21184 4.314453 8.833707 5.3248 14.752426 2.307414z" fill="#7CCBE2" p-id="8908"></path><path d="M364.591787 275.797333c-3.003733-5.911893-9.03168-8.82688-13.346134-6.621866l-84.3776 43.554133c-4.314453 2.205013-5.3248 8.82688-2.307413 14.7456 3.003733 5.91872 9.03168 8.82688 13.346133 6.621867l84.3776-43.547307c4.314453-2.205013 5.3248-8.82688 2.307414-14.7456z" fill="#7CCBE2" p-id="8909"></path><path d="M513.590613 136.533333c20.86912 0 37.819733 16.861867 37.819734 37.526187 0 20.671147-16.950613 37.526187-37.819734 37.526187s-37.82656-16.861867-37.82656-37.526187c0-20.671147 16.95744-37.526187 37.819734-37.526187z m0 65.017174c15.353173 0 27.89376-12.342613 27.89376-27.593387s-12.540587-27.593387-27.89376-27.593387c-15.353173 0-27.89376 12.342613-27.89376 27.593387s12.540587 27.593387 27.89376 27.593387z" fill="#E62A52" p-id="8910"></path></svg>