<?xml version="1.0" standalone="no"?><!DOCTYPE svg PUBLIC "-//W3C//DTD SVG 1.1//EN" "http://www.w3.org/Graphics/SVG/1.1/DTD/svg11.dtd"><svg t="1733153139968" class="icon" viewBox="0 0 1024 1024" version="1.1" xmlns="http://www.w3.org/2000/svg" p-id="9209" xmlns:xlink="http://www.w3.org/1999/xlink" width="200" height="200"><path d="M512 1024C229.218462 1024 0 794.781538 0 512S229.218462 0 512 0s512 229.218462 512 512-229.218462 512-512 512z m0-78.769231c239.261538 0 433.230769-193.969231 433.230769-433.230769S751.261538 78.769231 512 78.769231 78.769231 272.738462 78.769231 512s193.969231 433.230769 433.230769 433.230769z m0-590.769231a78.769231 78.769231 0 1 1 0-157.538461 78.769231 78.769231 0 0 1 0 157.538461z m160.807385 336.935385l-155.687385 150.449231c-50.057846 46.198154-103.896615 8.034462-89.757538-68.411077l39.463384-291.879385-52.854154-41.156923c-22.843077-18.904615-33.673846-46.552615 8.585846-46.552615h173.174154l-52.105846 315.864615 111.931077-43.52c26.781538-12.524308 43.953231-0.630154 17.250462 25.206154z" fill="#333333" p-id="9210"></path></svg>